<svg xmlns="http://www.w3.org/2000/svg" viewBox="0 0 312.19 170.08"><defs><style>.a{fill:#231f20;}.b{fill:#98002e;}</style></defs><path class="a" d="M133.51,95h.05a7.43,7.43,0,0,1,2-2.06,6.6,6.6,0,0,1,3.59-1,5.85,5.85,0,0,1,4.89,2.24c1.3,1.76,1.36,4.18,1.36,6.07v15.2a6.79,6.79,0,0,1-1.71,5,5.71,5.71,0,0,1-4.36,1.71,7,7,0,0,1-3.89-1.12,7.66,7.66,0,0,1-1.94-1.71v14.38h-5.9V92.37h5.9Zm0,17.44a3.9,3.9,0,0,0,.94,2.95,3.06,3.06,0,0,0,2.23.94,2.59,2.59,0,0,0,2.07-.88,3.26,3.26,0,0,0,.77-2.36V101.21a3.36,3.36,0,0,0-.77-2.65,2.6,2.6,0,0,0-2.07-.89,3,3,0,0,0-2.23,1,3.89,3.89,0,0,0-.94,2.94Z"/><path class="a" d="M156.6,92.37l4.78,18.15h.23l3.66-18.15h5.89l-8,33.17c-.41,1.71-.94,4.54-2.71,6.25s-4.06,1.83-5.89,1.83H153l-.12-5.48H154a3.16,3.16,0,0,0,2.77-1.24,7.54,7.54,0,0,0,1.06-2.83l.95-3.83-8.55-27.87Z"/><path class="a" d="M174.58,100.62a8.91,8.91,0,0,1,2.24-6.19,9.2,9.2,0,0,1,6.77-2.53,8.87,8.87,0,0,1,6.07,2.18,8,8,0,0,1,2.48,6.07V101a7.19,7.19,0,0,1-1,3.83,5.58,5.58,0,0,1-2.3,2,5.12,5.12,0,0,1,2.41,1.94,7.16,7.16,0,0,1,1.12,4.19v.76a8.94,8.94,0,0,1-2.29,5.89,9.49,9.49,0,0,1-6.78,2.54,9.8,9.8,0,0,1-6.25-2.24,8.15,8.15,0,0,1-2.47-5.83v-1.12h5.65v.58a2.78,2.78,0,0,0,.65,1.83,3.49,3.49,0,0,0,4.89,0,4,4,0,0,0,.71-2.47v-.53a2.7,2.7,0,0,0-.88-2.18,3.52,3.52,0,0,0-2.24-.77h-2.07v-5.07h1.89a3.13,3.13,0,0,0,2.36-.94,3.34,3.34,0,0,0,.7-2.18v-.29a3.85,3.85,0,0,0-.7-2.18,2.67,2.67,0,0,0-2.18-1,3,3,0,0,0-2.36,1,3,3,0,0,0-.77,2.17v.42h-5.65Z"/><path class="a" d="M199.44,101.8c0-2.3.18-5.54,2.89-7.84a9.8,9.8,0,0,1,12,0c2.71,2.3,2.89,5.54,2.89,7.84v10.37c0,2.3-.18,5.54-2.89,7.84a9.8,9.8,0,0,1-12,0c-2.71-2.3-2.89-5.54-2.89-7.84Zm11.9-.36a4.38,4.38,0,0,0-.88-2.94,3.12,3.12,0,0,0-4.24,0,4.38,4.38,0,0,0-.88,2.94v11.08a4.39,4.39,0,0,0,.88,3,3.15,3.15,0,0,0,4.24,0,4.39,4.39,0,0,0,.88-3Z"/><path class="a" d="M234.56,92.37a8.18,8.18,0,0,1,5.78,2.12,7.87,7.87,0,0,1,1.94,5.07V101a6.27,6.27,0,0,1-1.41,4.31,5.36,5.36,0,0,1-2.3,1.47,5.42,5.42,0,0,1,2.71,1.94,6.91,6.91,0,0,1,1.24,4.19v1.35a7.26,7.26,0,0,1-2.36,5.48c-1.88,1.71-4.18,1.88-6.36,1.88h-9V92.37Zm-3.83,12h2.6a2.58,2.58,0,0,0,2.35-.94,3.44,3.44,0,0,0,.71-2.36v-.59a2.89,2.89,0,0,0-.71-2.06,3,3,0,0,0-2.35-.77h-2.6Zm0,11.9h2.72a3.06,3.06,0,0,0,2.53-1,2.85,2.85,0,0,0,.65-2.06v-1.06a3.22,3.22,0,0,0-.71-2.18,3.15,3.15,0,0,0-2.47-.89h-2.72Z"/><path class="a" d="M261.73,118.71h-.12a9.67,9.67,0,0,1-2,2.24,5.06,5.06,0,0,1-3.41,1.12,6.46,6.46,0,0,1-4.48-1.53c-1.83-1.71-2.12-4.36-2.12-6.72,0-2.12.12-5.31,1.83-7.31,1.94-2.3,5.24-2.53,7-2.53.41,0,1.53,0,3.36.17v-3.06a3.37,3.37,0,0,0-.76-2.47,3.19,3.19,0,0,0-2.37-1,3,3,0,0,0-2.35,1.06,3.28,3.28,0,0,0-.77,1.89h-5.6a8.85,8.85,0,0,1,2.42-6.31,9.41,9.41,0,0,1,6.6-2.41,8.94,8.94,0,0,1,6.3,2.36,9.36,9.36,0,0,1,2.42,6.89v20.44h-5.89Zm0-9.84a12.6,12.6,0,0,0-2.07-.18,4.1,4.1,0,0,0-3.29,1.24,4.61,4.61,0,0,0-.89,3.06,4.46,4.46,0,0,0,.59,2.42,2.61,2.61,0,0,0,2.36,1.35c1.77,0,3.3-1.17,3.3-3.77Z"/><path class="a" d="M287,121.59v-12h-2.6l-4,12H274l4.78-12.9a7,7,0,0,1-2.3-1.88,8.38,8.38,0,0,1-1.3-4.6V99.74a7.26,7.26,0,0,1,2.36-5.48c1.88-1.71,4.18-1.89,6.36-1.89h9v29.22Zm0-24.51H284.3A2.94,2.94,0,0,0,282,98a3.13,3.13,0,0,0-.89,2.53v1.3a3.23,3.23,0,0,0,.71,2.18,3.19,3.19,0,0,0,2.48.88H287Z"/><path class="a" d="M306.29,169.61v-12H303.7l-4,12h-6.37l4.77-12.91a6.88,6.88,0,0,1-2.29-1.88,8.38,8.38,0,0,1-1.3-4.6v-2.47a7.26,7.26,0,0,1,2.36-5.48c1.88-1.71,4.18-1.89,6.36-1.89h9v29.23Zm0-24.51h-2.71a3,3,0,0,0-2.3.88,3.16,3.16,0,0,0-.88,2.53v1.3a3.22,3.22,0,0,0,.71,2.18,3.14,3.14,0,0,0,2.47.88h2.71Z"/><path class="a" d="M115.59,152.17a2.28,2.28,0,0,0,2.48-1.41,9.41,9.41,0,0,0,.76-2.84l.36-2.11a8.83,8.83,0,0,1,1.35-3.78c1.24-1.71,3.18-1.94,5.07-1.94H127v5h-.78a2.12,2.12,0,0,0-1.52.59,4,4,0,0,0-.65,2l-.3,2.18a11.52,11.52,0,0,1-.65,3.3,3.51,3.51,0,0,1-1.18,1.48l5.31,15h-6L117,157.12h-3.29v12.49h-5.9V140.38h5.9v11.79Z"/><path class="a" d="M132.8,149.81c0-2.3.18-5.54,2.88-7.84a9.8,9.8,0,0,1,12,0c2.72,2.3,2.89,5.54,2.89,7.84v10.37c0,2.3-.17,5.54-2.89,7.84a9.8,9.8,0,0,1-12,0c-2.7-2.3-2.88-5.54-2.88-7.84Zm11.9-.35a4.39,4.39,0,0,0-.88-3,3.16,3.16,0,0,0-4.25,0,4.39,4.39,0,0,0-.88,3v11.08a4.38,4.38,0,0,0,.88,2.94,3.14,3.14,0,0,0,4.25,0,4.38,4.38,0,0,0,.88-2.94Z"/><path class="a" d="M169.86,156.71H170l6.25-16.33h5.42v29.23h-5.54V153l-5,12.43h-2.48l-5-12.43v16.62h-5.54V140.38h5.42Z"/><path class="a" d="M189.78,140.38h17.44v29.23h-5.89V145.69h-5.66v23.92h-5.89Z"/><path class="a" d="M227,166.72h-.12a9.61,9.61,0,0,1-2,2.24,5.1,5.1,0,0,1-3.42,1.12,6.44,6.44,0,0,1-4.48-1.53c-1.82-1.71-2.12-4.36-2.12-6.72,0-2.12.12-5.3,1.83-7.31,1.94-2.29,5.24-2.53,6.95-2.53a32.59,32.59,0,0,1,3.36.18v-3.06a3.34,3.34,0,0,0-.77-2.49,3.17,3.17,0,0,0-2.35-.93,3,3,0,0,0-2.36,1.06,3.25,3.25,0,0,0-.77,1.88h-5.59a8.8,8.8,0,0,1,2.41-6.3,9.39,9.39,0,0,1,6.61-2.42,8.94,8.94,0,0,1,6.3,2.36,9.36,9.36,0,0,1,2.41,6.89v20.45H227Zm0-9.84a12.43,12.43,0,0,0-2.06-.17,4.11,4.11,0,0,0-3.3,1.23,4.64,4.64,0,0,0-.89,3.07,4.45,4.45,0,0,0,.59,2.41,2.6,2.6,0,0,0,2.36,1.36c1.77,0,3.3-1.18,3.3-3.77Z"/><path class="a" d="M241,140.38h5.9v11.79h6V140.38h5.89v29.23h-5.89V157.47h-6v12.14H241Z"/><path class="a" d="M272.8,140.38v16.33L280.05,144v-3.6h5.89v29.23h-5.89V153.29L272.8,166v3.59h-5.89V140.38Z"/><path class="a" d="M116.43,92.37c-2.08,0-4.52.24-6.36,1.84-2.08,1.85-2.26,4.34-2.26,6.36v21h5.9v-20a3.56,3.56,0,0,1,.88-2.42,3.31,3.31,0,0,1,2.79-1h5.11V92.37Z"/><path class="b" d="M15.53,92.36H0a85,85,0,0,0,84.63,77.26h7.73V154.17H84.63A69.53,69.53,0,0,1,15.53,92.36ZM76.91,15.53V0A85,85,0,0,0,0,76.91H15.53A69.55,69.55,0,0,1,76.91,15.53ZM92.36,0V15.53a69.55,69.55,0,0,1,61.38,61.38h15.53A85,85,0,0,0,92.36,0Z"/><path class="b" d="M76.52,30.94,65.59,41.87A38.51,38.51,0,0,1,76.91,69.18v69.54H92.36V69.18A54,54,0,0,0,76.52,30.94Z"/></svg>